<?xml version="1.0" encoding="UTF-8" standalone="no"?>
<!-- Created with Inkscape (http://www.inkscape.org/) -->

<svg
   width="63.764282mm"
   height="63.764282mm"
   viewBox="0 0 63.764282 63.764282"
   version="1.1"
   id="svg1"
   inkscape:version="1.4 (e7c3feb1, 2024-10-09)"
   sodipodi:docname="SYNX-Circular-Logo-Base.svg"
   xmlns:inkscape="http://www.inkscape.org/namespaces/inkscape"
   xmlns:sodipodi="http://sodipodi.sourceforge.net/DTD/sodipodi-0.dtd"
   xmlns="http://www.w3.org/2000/svg"
   xmlns:svg="http://www.w3.org/2000/svg">
  <sodipodi:namedview
     id="namedview1"
     pagecolor="#ffffff"
     bordercolor="#000000"
     borderopacity="0.25"
     inkscape:showpageshadow="2"
     inkscape:pageopacity="0.0"
     inkscape:pagecheckerboard="0"
     inkscape:deskcolor="#d1d1d1"
     inkscape:document-units="mm"
     inkscape:zoom="0.89887065"
     inkscape:cx="25.03141"
     inkscape:cy="215.27013"
     inkscape:window-width="1200"
     inkscape:window-height="1186"
     inkscape:window-x="855"
     inkscape:window-y="25"
     inkscape:window-maximized="0"
     inkscape:current-layer="layer1" />
  <defs
     id="defs1">
    <clipPath
       id="master_svg0_13428_22468">
      <rect
         x="0"
         y="0"
         width="566"
         height="174"
         rx="0"
         id="rect1" />
    </clipPath>
    <clipPath
       id="master_svg1_13428_22485">
      <rect
         x="32"
         y="31"
         width="100"
         height="100"
         rx="0"
         id="rect2" />
    </clipPath>
  </defs>
  <g
     inkscape:label="Layer 1"
     inkscape:groupmode="layer"
     id="layer1"
     transform="translate(-98.160417,-91.482666)">
    <g
       id="g2"
       transform="matrix(0.5184088,0,0,0.5184088,98.160417,91.482666)">
      <g
         clip-path="url(#master_svg0_13428_22468)"
         id="g20"
         style="display:inline;fill:#000000"
         transform="translate(-27,-27)">
        <g
           id="g19"
           style="display:inline;fill:#000000">
          <g
             id="g6"
             style="display:none;fill:#000000">
            <g
               id="g5"
               style="display:inline;fill:#000000">
              <g
                 id="g3"
                 style="display:inline;fill:#000000">
                <path
                   d="m 223.3423,66.1318 q 0,7.251 -5.2185,11.4258 -5.2185,4.1748 -14.5203,4.1748 -8.5693,0 -15.16112,-3.2226 V 67.9629 q 5.41992,2.417 9.17362,3.4058 3.7536,0.9887 6.8664,0.9887 3.7354,0 5.7312,-1.4282 1.9959,-1.4282 1.9959,-4.248 0,-1.5748 -0.8789,-2.8016 -0.8789,-1.2268 -2.5818,-2.362 -1.7029,-1.1353 -6.9397,-3.6255 -4.9072,-2.3071 -7.36086,-4.4312 -2.45361,-2.124 -3.91845,-4.9438 -1.46485,-2.8198 -1.46485,-6.5918 0,-7.1045 4.81568,-11.1694 4.81568,-4.065 13.31178,-4.065 4.1748,0 7.9651,0.9888 3.7903,0.9888 7.9284,2.7832 l -3.6621,8.8257 q -4.2846,-1.7578 -7.0862,-2.4536 -2.8015,-0.6958 -5.5114,-0.6958 -3.2227,0 -4.9439,1.5014 -1.7212,1.5015 -1.7212,3.9185 0,1.5014 0.6958,2.6184 0.6958,1.1169 2.2156,2.1606 1.5198,1.0437 7.1961,3.7537 7.5073,3.5889 10.2905,7.196 2.7832,3.6072 2.7832,8.844 z m 2.9663,-26.0742 H 238.54 l 7.7271,23.0347 q 0.9888,3.0029 1.355,7.1045 h 0.2197 q 0.4028,-3.772 1.5747,-7.1045 l 7.5806,-23.0347 h 11.9751 l -17.3218,46.1792 q -2.3804,6.4087 -6.7932,9.5947 -4.4129,3.1861 -10.3089,3.1861 -2.893,0 -5.6762,-0.6226 v -8.8623 q 2.0141,0.4761 4.3945,0.4761 2.9663,0 5.1819,-1.8128 2.2156,-1.8127 3.4607,-5.4748 l 0.6592,-2.0142 z M 312.625,81 h -11.17 V 57.0864 q 0,-4.4311 -1.575,-6.6467 -1.574,-2.2156 -5.017,-2.2156 -4.687,0 -6.775,3.1311 -2.087,3.1311 -2.087,10.3821 V 81 H 274.8315 V 40.0576 h 8.5328 l 1.5014,5.2368 h 0.6223 q 1.868,-2.9663 5.146,-4.4861 3.277,-1.5197 7.452,-1.5197 7.141,0 10.84,3.8635 3.699,3.8635 3.699,11.1511 z M 332.51,60.0894 319.326,40.0576 h 12.671 l 7.947,13.0371 8.02,-13.0371 h 12.671 L 347.305,60.0894 361.257,81 H 348.55 L 339.944,66.9741 331.301,81 H 318.63 Z m 80.273,-6.3721 q 0,13.2202 -7.525,20.2515 Q 397.732,81 383.523,81 H 368.362 V 27.46 h 16.809 q 13.11,0 20.361,6.9213 7.251,6.9214 7.251,19.336 z m -11.792,0.293 q 0,-17.2486 -15.234,-17.2486 h -6.043 V 71.625 h 4.871 q 16.406,0 16.406,-17.6147 z M 449.001,81 l -2.16,-5.5664 h -0.293 q -2.82,3.5522 -5.805,4.9255 -2.984,1.3733 -7.782,1.3733 -5.896,0 -9.283,-3.3691 -3.387,-3.3692 -3.387,-9.5947 0,-6.5186 4.559,-9.6131 4.559,-3.0945 13.751,-3.4241 l 7.105,-0.2197 v -1.7944 q 0,-6.2256 -6.373,-6.2256 -4.907,0 -11.535,2.9663 l -3.699,-7.5439 q 7.068,-3.6988 15.674,-3.6988 8.24,0 12.634,3.5889 4.395,3.5889 4.395,10.9131 V 81 Z m -3.295,-18.9697 -4.322,0.1465 q -4.87,0.1464 -7.251,1.7578 -2.38,1.6113 -2.38,4.9072 0,4.7241 5.42,4.7241 3.882,0 6.207,-2.2339 2.326,-2.2339 2.326,-5.9326 z m 39.843,10.8032 q 2.93,0 7.032,-1.2817 v 8.3129 q -4.175,1.8677 -10.254,1.8677 -6.702,0 -9.76,-3.3874 -3.058,-3.3875 -3.058,-10.1624 V 48.4438 h -5.346 v -4.7241 l 6.152,-3.7353 3.223,-8.6426 h 7.141 v 8.7158 h 11.462 v 8.3862 h -11.462 v 19.7388 q 0,2.3804 1.336,3.5156 1.337,1.1353 3.534,1.1353 z M 526.858,81 524.697,75.4336 h -0.293 q -2.82,3.5522 -5.804,4.9255 -2.985,1.3733 -7.782,1.3733 -5.896,0 -9.284,-3.3691 -3.387,-3.3692 -3.387,-9.5947 0,-6.5186 4.559,-9.6131 4.56,-3.0945 13.752,-3.4241 l 7.104,-0.2197 v -1.7944 q 0,-6.2256 -6.372,-6.2256 -4.907,0 -11.536,2.9663 l -3.698,-7.5439 q 7.067,-3.6988 15.673,-3.6988 8.24,0 12.635,3.5889 4.394,3.5889 4.394,10.9131 V 81 Z m -3.296,-18.9697 -4.321,0.1465 q -4.871,0.1464 -7.251,1.7578 -2.381,1.6113 -2.381,4.9072 0,4.7241 5.42,4.7241 3.882,0 6.208,-2.2339 2.325,-2.2339 2.325,-5.9326 z"
                   fill="#3d3d3d"
                   fill-opacity="1"
                   id="path2"
                   style="display:inline;fill:#000000" />
                <path
                   d=""
                   fill="#4173f6"
                   fill-opacity="1"
                   id="path3"
                   style="display:inline;fill:#000000" />
              </g>
              <g
                 id="g4"
                 style="display:inline;fill:#000000">
                <path
                   d="m 188.8955,151.2002 v -46.4014 h 9.83886 v 38.2764 h 18.8208 v 8.125 z m 58.49366,0 -1.8726,-4.8242 h -0.2539 q -2.4438,3.0786 -5.0305,4.2688 -2.5867,1.1902 -6.7444,1.1902 -5.1098,0 -8.0456,-2.92 -2.9358,-2.9199 -2.9358,-8.3154 0,-5.6494 3.9514,-8.3313 3.9514,-2.6819 11.9177,-2.9675 l 6.1573,-0.1904 v -1.5552 q 0,-5.3955 -5.5225,-5.3955 -4.2529,0 -9.9976,2.5708 l -3.2055,-6.5381 q 6.1255,-3.2056 13.5839,-3.2056 7.1412,0 10.9498,3.1104 3.8086,3.1103 3.8086,9.458 v 23.645 z m -2.8564,-16.4404 -3.7452,0.1269 q -4.2212,0.127 -6.2841,1.5235 -2.063,1.3964 -2.063,4.2529 0,4.0942 4.6972,4.0942 3.3643,0 5.3797,-1.936 2.0154,-1.936 2.0154,-5.1416 z m 39.3239,-19.7095 q 6.284,0 9.839,4.9036 3.554,4.9035 3.554,13.4411 0,8.7915 -3.665,13.6157 -3.666,4.8243 -9.982,4.8243 -6.2526,0 -9.8073,-4.5386 h -0.6665 l -1.6186,3.9038 h -7.395 v -49.3848 h 9.6801 v 11.4893 q 0,2.1899 -0.3808,7.0142 h 0.3808 q 3.396,-5.2686 10.0613,-5.2686 z m -3.1106,7.7441 q -3.5864,0 -5.2368,2.2058 -1.6504,2.2059 -1.7139,7.284 v 1.0473 q 0,5.7129 1.698,8.1885 1.698,2.4756 5.3797,2.4756 2.9836,0 4.7446,-2.7454 1.762,-2.7453 1.762,-7.9821 0,-5.2368 -1.778,-7.8553 -1.777,-2.6184 -4.8556,-2.6184 z m 49.2576,17.8687 q 0,5.459 -3.792,8.3154 -3.793,2.8565 -11.347,2.8565 -3.872,0 -6.601,-0.5237 -2.73,-0.5237 -5.11,-1.5393 v -7.9981 q 2.697,1.2696 6.078,2.1265 3.38,0.8569 5.95,0.8569 5.269,0 5.269,-3.0468 0,-1.1426 -0.698,-1.8567 -0.698,-0.7141 -2.412,-1.6187 -1.714,-0.9045 -4.571,-2.1106 -4.094,-1.7139 -6.014,-3.1738 -1.92,-1.46 -2.793,-3.3484 -0.873,-1.8884 -0.873,-4.6497 0,-4.729 3.666,-7.3156 3.666,-2.5867 10.394,-2.5867 6.411,0 12.473,2.793 l -2.92,6.9824 q -2.666,-1.1426 -4.982,-1.8726 -2.317,-0.73 -4.729,-0.73 -4.285,0 -4.285,2.3169 0,1.3013 1.38,2.2535 1.381,0.9521 6.047,2.8247 4.157,1.6821 6.093,3.1421 1.936,1.4599 2.857,3.3642 0.92,1.9043 0.92,4.5386 z"
                   fill="#3d3d3d"
                   fill-opacity="1"
                   id="path4"
                   style="display:inline;fill:#000000" />
              </g>
            </g>
          </g>
          <g
             id="g10"
             style="display:inline;fill:#000000">
            <g
               id="g7"
               style="fill:#000000">
              <path
                 d="m 140,88.5 q 0,16.1718 -9.2033,29.3897 l 8.2063,5.7141 Q 150,107.8103 150,88.5 150,63.0259 131.9871,45.0129 113.9742,27 88.5,27 75.8334,27 64.2814,31.953632 l 3.9411,9.190648 Q 77.887,37 88.5,37 109.832,37 124.916,52.084 140,67.168 140,88.5 Z m -103,0 Q 37,72.7919 45.7224,59.8132 L 37.42263,54.2353 Q 27,69.7439 27,88.5 27,113.9742 45.0129,131.9871 63.0259,150 88.5,150 q 11.5948,0 22.3111,-4.173 l -3.629,-9.319 Q 98.2163,140 88.5,140 67.168,140 52.084,124.916 37,109.832 37,88.5 Z"
                 fill-rule="evenodd"
                 fill="#00319f"
                 fill-opacity="1"
                 id="path6"
                 style="fill:#000000" />
            </g>
            <g
               id="g8"
               style="fill:#000000">
              <circle
                 cx="41"
                 cy="58"
                 fill="#00319f"
                 fill-opacity="1"
                 id="ellipse7"
                 r="13"
                 style="fill:#000000" />
            </g>
            <g
               id="g9"
               style="fill:#000000">
              <circle
                 cx="136"
                 cy="121"
                 fill="#00319f"
                 fill-opacity="1"
                 id="ellipse8"
                 r="13"
                 style="fill:#000000" />
            </g>
          </g>
          <g
             clip-path="url(#master_svg1_13428_22485)"
             id="g18"
             style="display:inline;fill:#000000">
            <g
               id="g17"
               style="fill:#000000">
              <g
                 id="g11"
                 style="fill:#000000">
                <path
                   d="m 93.741235,110.96884 c 0,1.467 -1.1481,2.6151 -2.6151,2.6151 h -9.95003 c -1.46699,0 -2.61507,-1.1481 -2.61507,-2.6151 V 83.080074 c 0,-1.46699 1.14824,-2.61523 2.61523,-2.61523 h 9.94967 c 1.467,0 2.6153,1.14824 2.6153,2.61523 z"
                   fill="#00319f"
                   fill-opacity="1"
                   id="path10"
                   style="fill:#000000" />
              </g>
              <g
                 id="g12"
                 style="fill:#000000">
                <path
                   d="m 74.606958,110.96883 c 0,1.467 -1.1481,2.6151 -2.6151,2.6151 h -9.95003 c -1.46699,0 -2.61507,-1.1481 -2.61507,-2.6151 V 90.667964 c 0,-1.46699 1.14824,-2.61523 2.61523,-2.61523 h 9.94967 c 1.467,0 2.6153,1.14824 2.6153,2.61523 z"
                   fill="#00319f"
                   fill-opacity="1"
                   id="path11"
                   style="fill:#000000" />
              </g>
              <g
                 id="g13"
                 style="fill:#000000">
                <path
                   d="m 113.38625,110.96816 c 0,1.4669 -1.1481,2.615 -2.6151,2.615 h -9.95003 c -1.466985,0 -2.615065,-1.1481 -2.615065,-2.615 V 76.154292 c 0,-1.46699 1.14824,-2.61523 2.615225,-2.61523 h 9.94967 c 1.467,0 2.6153,1.14824 2.6153,2.61523 z"
                   fill="#00319f"
                   fill-opacity="1"
                   id="path12"
                   style="fill:#000000" />
              </g>
              <g
                 id="g14"
                 style="fill:#000000">
                <circle
                   cx="105.5"
                   cy="63.5"
                   fill="#00319f"
                   fill-opacity="1"
                   id="ellipse13"
                   r="7.5"
                   style="fill:#000000" />
              </g>
              <g
                 id="g15"
                 style="fill:#000000">
                <circle
                   cx="86.5"
                   cy="70.5"
                   fill="#00319f"
                   fill-opacity="1"
                   id="ellipse14"
                   r="7.5"
                   style="fill:#000000" />
              </g>
              <g
                 id="g16"
                 style="fill:#000000">
                <circle
                   cx="67.5"
                   cy="78.5"
                   fill="#00319f"
                   fill-opacity="1"
                   id="ellipse15"
                   r="7.5"
                   style="fill:#000000" />
              </g>
            </g>
          </g>
        </g>
      </g>
    </g>
  </g>
</svg>
